<?xml version="1.0" encoding="UTF-8" standalone="no"?><!DOCTYPE svg PUBLIC "-//W3C//DTD SVG 1.1//EN" "http://www.w3.org/Graphics/SVG/1.1/DTD/svg11.dtd"><svg width="100%" height="100%" viewBox="0 0 200 200" version="1.1" xmlns="http://www.w3.org/2000/svg" xmlns:xlink="http://www.w3.org/1999/xlink" xml:space="preserve" xmlns:serif="http://www.serif.com/" style="fill-rule:evenodd;clip-rule:evenodd;stroke-linecap:round;stroke-linejoin:round;stroke-miterlimit:1.5;"><rect id="Artboard1" x="0" y="0" width="200" height="200" style="fill:none;"/><clipPath id="_clip1"><rect id="Artboard11" serif:id="Artboard1" x="0" y="0" width="200" height="200"/></clipPath><g clip-path="url(#_clip1)"><g><path d="M91.386,143.063l0,-86.126l61.324,0l10.164,10.164l-60.091,0l0,26.378l47.645,0l0,10.105l-47.645,0l0,29.315l60.091,0l-10.164,10.164l-61.324,0Z" style="fill:#fff;fill-rule:nonzero;"/><path d="M73.719,169.491l0,-102.39l-36.593,0l10.164,-10.164l66.319,0l0,10.164l-28.493,0l0,113.787l-11.397,-11.397Z" style="fill:#fff;fill-rule:nonzero;"/></g><path d="M100,4.227l-95.773,95.773l95.773,95.773l95.773,-95.773l-95.773,-95.773Z" style="fill:none;stroke:#fff;stroke-width:3px;"/></g></svg>